<svg width="20" height="20" viewBox="0 0 20 20" fill="none" xmlns="http://www.w3.org/2000/svg">
<path d="M14.2518 12.6449C15.1466 11.4231 15.6817 9.92234 15.6817 8.29539C15.6817 4.22267 12.3681 0.908997 8.29537 0.908997C4.22268 0.908997 0.909058 4.22267 0.909058 8.29539C0.909058 12.3681 4.22271 15.6818 8.29541 15.6818C9.92235 15.6818 11.4232 15.1465 12.645 14.2518L17.484 19.0908L19.0909 17.4839C19.0909 17.4839 14.2518 12.6449 14.2518 12.6449ZM8.29541 13.409C5.47558 13.409 3.18179 11.1152 3.18179 8.29539C3.18179 5.47555 5.47558 3.18175 8.29541 3.18175C11.1152 3.18175 13.409 5.47555 13.409 8.29539C13.409 11.1152 11.1152 13.409 8.29541 13.409Z" fill="white"/>
</svg>
